<?xml version="1.0" standalone="no"?>
<!DOCTYPE svg PUBLIC "-//W3C//DTD SVG 20010904//EN"
 "http://www.w3.org/TR/2001/REC-SVG-20010904/DTD/svg10.dtd">
<svg version="1.0" xmlns="http://www.w3.org/2000/svg"
 width="500.000000pt" height="500.000000pt" viewBox="0 0 500.000000 500.000000"
 preserveAspectRatio="xMidYMid meet">

<g transform="translate(0.000000,500.000000) scale(0.100000,-0.100000)"
fill="#000000" stroke="none">
<path d="M3326 3879 c-8 -42 0 -50 9 -9 4 17 5 34 2 36 -2 3 -7 -10 -11 -27z"/>
<path d="M2340 3703 c-160 -24 -289 -112 -350 -239 -17 -36 -40 -109 -51 -162
-10 -53 -33 -162 -49 -242 -40 -193 -72 -379 -68 -391 2 -5 18 17 37 48 89
152 244 247 437 268 l61 7 16 96 c10 53 20 118 23 145 l7 47 297 0 c265 0 305
2 359 19 135 42 202 126 217 271 6 66 5 72 -14 76 -12 4 -22 17 -26 35 l-5 29
-433 -1 c-238 -1 -444 -3 -458 -6z"/>
<path d="M2350 2959 c-224 -12 -364 -85 -478 -250 -28 -42 -82 -197 -82 -238
0 -9 -7 -47 -15 -86 -22 -102 -85 -438 -85 -454 0 -11 26 -13 138 -9 132 3
141 5 205 36 79 39 138 102 166 177 11 29 35 135 53 234 l32 181 60 1 c34 1
124 2 201 3 150 2 218 16 298 60 81 45 147 164 162 294 l6 52 -118 1 c-65 0
-188 2 -273 2 -85 1 -207 -1 -270 -4z"/>
</g>
</svg>
